HIERARCHY
ROOT joint_Root
{
	OFFSET 0.0 0.0 0.0
	CHANNELS 6 Xposition Yposition Zposition Zrotation Xrotation Yrotation 
	JOINT Hips
	{
		OFFSET -0.726466 93.3139 -2.00062
		CHANNELS 6 Xposition Yposition Zposition Zrotation Xrotation Yrotation 
		JOINT Spine
		{
			OFFSET 15.7357 0.0 0.0
			CHANNELS 6 Xposition Yposition Zposition Zrotation Xrotation Yrotation 
			JOINT Chest
			{
				OFFSET 8.98455 -0.406207 0.0
				CHANNELS 6 Xposition Yposition Zposition Zrotation Xrotation Yrotation 
				JOINT Neck
				{
					OFFSET 16.3773 0.0 0.0
					CHANNELS 6 Xposition Yposition Zposition Zrotation Xrotation Yrotation 
					JOINT Head
					{
						OFFSET 6.45672 0.0 0.0
						CHANNELS 6 Xposition Yposition Zposition Zrotation Xrotation Yrotation 
						End Site
						{
							OFFSET 0.0 0.0 0.0
						}
					}
				}
				JOINT Shoulder_L
				{
					OFFSET 12.9942 -0.242716 4.98039
					CHANNELS 6 Xposition Yposition Zposition Zrotation Xrotation Yrotation 
					JOINT UpperArm_L
					{
						OFFSET 5.34809 0.0 0.0
						CHANNELS 6 Xposition Yposition Zposition Zrotation Xrotation Yrotation 
						JOINT LowerArm_L
						{
							OFFSET 24.3286 1.87007e-05 0.0
							CHANNELS 6 Xposition Yposition Zposition Zrotation Xrotation Yrotation 
							JOINT Hand_L
							{
								OFFSET 22.2916 0.0 0.0
								CHANNELS 6 Xposition Yposition Zposition Zrotation Xrotation Yrotation 
								End Site
								{
									OFFSET 0.0 0.0 0.0
								}
							}
						}
					}
				}
				JOINT Shoulder_R
				{
					OFFSET 12.9945 -0.242716 -4.98039
					CHANNELS 6 Xposition Yposition Zposition Zrotation Xrotation Yrotation 
					JOINT UpperArm_R
					{
						OFFSET -5.34813 0.0 0.0
						CHANNELS 6 Xposition Yposition Zposition Zrotation Xrotation Yrotation 
						JOINT LowerArm_R
						{
							OFFSET -24.3289 0.000322201 0.0
							CHANNELS 6 Xposition Yposition Zposition Zrotation Xrotation Yrotation 
							JOINT Hand_R
							{
								OFFSET -22.2915 -0.000108084 0.0
								CHANNELS 6 Xposition Yposition Zposition Zrotation Xrotation Yrotation 
								End Site
								{
									OFFSET 0.0 0.0 0.0
								}
							}
						}
					}
				}
			}
		}
		JOINT UpperLeg_L
		{
			OFFSET -2.19248 -6.46944 0.0
			CHANNELS 6 Xposition Yposition Zposition Zrotation Xrotation Yrotation 
			JOINT LowerLeg_L
			{
				OFFSET 39.0811 0.0 -1.23785e-05
				CHANNELS 6 Xposition Yposition Zposition Zrotation Xrotation Yrotation 
				JOINT Foot_L
				{
					OFFSET 40.9854 0.0 -1.26872e-05
					CHANNELS 6 Xposition Yposition Zposition Zrotation Xrotation Yrotation 
					JOINT Toes_L
					{
						OFFSET 11.7543 0.0 0.0
						CHANNELS 6 Xposition Yposition Zposition Zrotation Xrotation Yrotation 
						End Site
						{
							OFFSET 0.0 0.0 0.0
						}
					}
				}
			}
		}
		JOINT UpperLeg_R
		{
			OFFSET -2.19251 6.46944 0.0
			CHANNELS 6 Xposition Yposition Zposition Zrotation Xrotation Yrotation 
			JOINT LowerLeg_R
			{
				OFFSET -39.0811 -0.00228153 -0.0401928
				CHANNELS 6 Xposition Yposition Zposition Zrotation Xrotation Yrotation 
				JOINT Foot_R
				{
					OFFSET -40.9854 0.0 0.0
					CHANNELS 6 Xposition Yposition Zposition Zrotation Xrotation Yrotation 
					JOINT Toes_R
					{
						OFFSET -11.7543 0.0 0.0
						CHANNELS 6 Xposition Yposition Zposition Zrotation Xrotation Yrotation 
						End Site
						{
							OFFSET 0.0 0.0 0.0
						}
					}
				}
			}
		}
	}
}
MOTION
Frames:	7
Frame Time:	0.0333333
0.000000 0.000000 0.000000 0.000000 0.000000 -0.000000 2.601900 89.732200 521.461000 -91.711100 4.580790 178.226000 15.735700 0.000005 -0.000001 103.800000 80.977400 -103.913000 8.984550 -0.406207 -0.000000 9.782550 4.276450 -0.591098 16.377300 -0.000001 -0.000001 8.163090 -1.129410 0.763633 6.456720 -0.000001 -0.000000 3.771410 -5.232580 -0.757335 12.994200 -0.242716 4.980390 -88.599700 -2.851290 -63.830100 5.348090 -0.000007 -0.000001 -66.217800 33.621800 3.957090 24.328600 0.000019 0.000005 4.955670 7.177260 -34.760800 22.291600 -0.000001 0.000005 -3.241390 5.544290 -8.439250 12.994500 -0.242716 -4.980390 89.832000 0.441754 -69.190200 -5.348130 -0.000001 -0.000004 -46.386800 26.136300 -39.734600 -24.328900 0.000322 -0.000009 -7.019500 -4.565490 -57.112900 -22.291500 -0.000108 -0.000004 5.426920 5.530370 -7.811710 -2.192480 -6.469440 -0.000000 -176.632000 -11.904100 -33.054600 39.081100 -0.000007 -0.000012 0.141971 -0.081227 60.223100 40.985400 -0.000006 -0.000013 -3.052420 -6.826230 -64.378400 11.754300 -0.000000 0.000003 -0.004572 -0.057272 -18.906800 -2.192510 6.469440 -0.000001 174.490000 13.346400 -179.254000 -39.081100 -0.002282 -0.040193 0.013737 -0.021159 26.233400 -40.985400 0.000008 0.000006 2.844390 4.778750 -76.125300 -11.754300 -0.000006 -0.000006 -0.867207 -1.042680 -18.823200
0.000000 0.000000 0.000000 0.000000 0.000000 -0.000000 2.276420 89.356200 519.080000 -91.773100 6.117500 177.771000 15.735700 0.000005 -0.000001 107.620000 80.760900 -107.978000 8.984550 -0.406207 -0.000000 9.897020 5.552210 -1.197520 16.377300 -0.000001 -0.000001 7.965470 -0.880792 0.638577 6.456720 -0.000001 -0.000000 3.444710 -5.786410 -0.622334 12.994200 -0.242716 4.980390 -88.492600 -2.968170 -63.060700 5.348090 -0.000007 -0.000001 -65.569200 31.829300 6.921790 24.328600 0.000019 0.000005 4.991600 7.600540 -33.438700 22.291600 -0.000001 0.000005 -2.865530 5.542660 -8.364280 12.994500 -0.242716 -4.980390 90.003700 -0.010304 -70.116900 -5.348130 -0.000001 -0.000004 -41.558700 22.371300 -45.595200 -24.328900 0.000322 -0.000009 -7.869370 -4.832080 -58.635500 -22.291500 -0.000108 -0.000004 5.737540 5.530710 -7.826350 -2.192480 -6.469440 -0.000000 -177.497000 -12.686200 -35.771200 39.081100 -0.000007 -0.000012 0.105881 -0.080790 52.654000 40.985400 -0.000006 -0.000013 -3.812830 -4.470660 -64.414900 11.754300 -0.000000 0.000003 -0.004540 -0.056946 -18.893500 -2.192510 6.469440 -0.000001 173.404000 12.967000 -177.681000 -39.081100 -0.002282 -0.040193 0.004909 -0.003397 25.180400 -40.985400 0.000008 0.000006 2.500950 6.232200 -76.622500 -11.754300 -0.000006 -0.000006 -0.853742 -1.020010 -19.348000
0.000000 0.000000 0.000000 0.000000 0.000000 -0.000000 1.916350 88.700700 516.531000 -91.400700 7.495080 177.153000 15.735700 0.000005 -0.000001 110.441000 80.572100 -110.912000 8.984550 -0.406207 -0.000000 9.977420 6.535250 -1.513070 16.377300 -0.000001 -0.000001 7.881120 -0.362163 0.538570 6.456720 -0.000001 -0.000000 3.169610 -6.087060 -0.669719 12.994200 -0.242716 4.980390 -88.296400 -3.257840 -62.374700 5.348090 -0.000007 -0.000001 -65.160300 29.927000 9.510230 24.328600 0.000019 0.000005 5.170230 8.202500 -32.382900 22.291600 -0.000001 0.000005 -3.201310 5.541590 -8.315250 12.994500 -0.242716 -4.980390 90.140500 -0.407797 -70.979600 -5.348130 -0.000001 -0.000004 -37.574500 18.353700 -50.604400 -24.328900 0.000322 -0.000009 -8.401900 -5.238710 -58.272600 -22.291500 -0.000108 -0.000004 5.785330 5.530160 -7.802050 -2.192480 -6.469440 -0.000000 -177.792000 -13.315100 -37.268900 39.081100 -0.000007 -0.000012 0.060958 -0.065849 42.790300 40.985400 -0.000006 -0.000013 -5.154550 -1.804730 -63.956600 11.754300 -0.000000 0.000003 -0.004648 -0.058024 -18.937400 -2.192510 6.469440 -0.000001 172.614000 12.787600 -176.396000 -39.081100 -0.002282 -0.040193 -0.008042 0.024593 24.781900 -40.985400 0.000008 0.000006 2.160600 7.625730 -77.534800 -11.754300 -0.000006 -0.000006 -0.822204 -0.977206 -19.938800
0.000000 0.000000 0.000000 0.000000 0.000000 -0.000000 1.512990 87.763800 513.664000 -90.603600 8.732850 176.642000 15.735700 0.000005 -0.000001 112.512000 80.319800 -112.948000 8.984550 -0.406207 -0.000000 10.209200 7.355170 -1.530550 16.377300 -0.000001 -0.000001 7.634530 -0.041550 0.458603 6.456720 -0.000001 -0.000000 2.973380 -5.979770 -0.882043 12.994200 -0.242716 4.980390 -88.083200 -3.579800 -61.808300 5.348090 -0.000007 -0.000001 -64.995300 27.956300 11.726500 24.328600 0.000019 0.000005 5.056980 8.250130 -31.661000 22.291600 -0.000001 0.000005 -3.546530 5.532020 -7.884110 12.994500 -0.242716 -4.980390 90.352100 -1.050910 -71.474100 -5.348130 -0.000001 -0.000004 -35.388000 14.605500 -54.550100 -24.328900 0.000322 -0.000009 -7.831900 -5.189340 -56.667800 -22.291500 -0.000108 -0.000004 5.504760 5.531370 -7.855470 -2.192480 -6.469440 -0.000000 -177.521000 -13.668100 -37.705700 39.081100 -0.000007 -0.000012 0.025078 -0.039810 32.207600 40.985400 -0.000006 -0.000013 -5.553200 0.032458 -62.323600 11.754300 -0.000000 0.000003 -0.004169 -0.053193 -18.740600 -2.192510 6.469440 -0.000001 171.878000 13.007600 -174.862000 -39.081100 -0.002282 -0.040193 -0.030593 0.073304 24.822000 -40.985400 0.000008 0.000006 1.768050 9.603490 -78.591000 -11.754300 -0.000006 -0.000006 -0.986667 -1.149350 -20.714200
0.000000 0.000000 0.000000 0.000000 0.000000 -0.000000 1.045820 86.638100 510.269000 -89.470400 10.251300 176.455000 15.735700 0.000005 -0.000001 114.626000 79.904600 -115.013000 8.984550 -0.406207 -0.000000 10.699900 8.344330 -1.556700 16.377300 -0.000001 -0.000001 7.346070 0.405289 0.563803 6.456720 -0.000001 -0.000000 2.728210 -5.822900 -0.872331 12.994200 -0.242716 4.980390 -87.818400 -4.027530 -61.524900 5.348090 -0.000007 -0.000001 -65.132800 25.580200 13.652500 24.328600 0.000019 0.000005 4.550210 7.538790 -31.240200 22.291600 -0.000001 0.000005 -3.493420 5.525460 -7.596520 12.994500 -0.242716 -4.980390 90.523600 -1.592820 -71.800500 -5.348130 -0.000001 -0.000004 -34.906300 11.533800 -56.930200 -24.328900 0.000322 -0.000009 -7.052190 -4.945930 -55.121500 -22.291500 -0.000108 -0.000004 5.541450 5.532330 -7.898040 -2.192480 -6.469440 -0.000000 -177.023000 -14.402100 -37.771600 39.081100 -0.000007 -0.000012 0.014523 -0.032221 24.263000 40.985400 -0.000006 -0.000013 -4.084380 1.227210 -61.813000 11.754300 -0.000000 0.000003 -0.004055 -0.052024 -18.693000 -2.192510 6.469440 -0.000001 171.091000 12.780200 -173.038000 -39.081100 -0.002282 -0.040193 -0.065756 0.145210 25.437500 -40.985400 0.000008 0.000006 1.350210 11.493200 -78.865700 -11.754300 -0.000006 -0.000006 -1.726770 -1.900810 -22.465100
0.000000 0.000000 0.000000 0.000000 0.000000 -0.000000 0.371486 85.351200 506.299000 -88.514500 12.205700 176.099000 15.735700 0.000005 -0.000001 117.001000 79.513800 -117.508000 8.984550 -0.406207 -0.000000 11.072500 9.436040 -1.931800 16.377300 -0.000001 -0.000001 7.003020 0.775700 0.864937 6.456720 -0.000001 -0.000000 2.301040 -5.730710 -0.823828 12.994200 -0.242716 4.980390 -87.575200 -4.453620 -61.395300 5.348090 -0.000007 -0.000001 -65.432700 23.242200 15.159000 24.328600 0.000019 0.000005 2.955610 4.944700 -30.921900 22.291600 -0.000001 0.000005 -3.610140 5.524140 -7.540110 12.994500 -0.242716 -4.980390 90.627800 -1.933560 -72.007500 -5.348130 -0.000001 -0.000004 -35.438900 9.372430 -57.979300 -24.328900 0.000322 -0.000009 -6.768120 -4.922740 -54.125500 -22.291500 -0.000108 -0.000004 5.608320 5.534240 -7.982950 -2.192480 -6.469440 -0.000000 -177.454000 -16.300600 -41.041200 39.081100 -0.000007 -0.000012 0.094277 -0.197219 25.549300 40.985400 -0.000006 -0.000013 -2.597610 1.309910 -62.504600 11.754300 -0.000000 0.000003 -0.004092 -0.052401 -18.708400 -2.192510 6.469440 -0.000001 170.142000 11.213200 -171.589000 -39.081100 -0.002282 -0.040193 -0.099007 0.205289 26.491800 -40.985400 0.000008 0.000006 1.036880 12.366800 -78.251800 -11.754300 -0.000006 -0.000006 -2.919470 -2.948350 -25.585900
0.000000 0.000000 0.000000 0.000000 0.000000 -0.000000 -0.548259 84.276500 501.962000 -88.506700 13.581200 174.768000 15.735700 0.000005 -0.000001 118.064000 79.685100 -119.058000 8.984550 -0.406207 -0.000000 10.632900 9.613490 -2.887560 16.377300 -0.000001 -0.000001 7.041170 1.218150 1.113930 6.456720 -0.000001 -0.000000 1.762160 -5.431240 -0.565551 12.994200 -0.242716 4.980390 -87.652500 -4.333570 -61.519400 5.348090 -0.000007 -0.000001 -65.478300 21.161800 16.328300 24.328600 0.000019 0.000005 1.656420 2.754020 -31.041900 22.291600 -0.000001 0.000005 -3.842720 5.532420 -7.903070 12.994500 -0.242716 -4.980390 90.516200 -1.649160 -72.616700 -5.348130 -0.000001 -0.000004 -36.295100 8.322710 -57.755700 -24.328900 0.000322 -0.000009 -6.641240 -4.975220 -53.314600 -22.291500 -0.000108 -0.000004 5.899660 5.537450 -8.126270 -2.192480 -6.469440 -0.000000 -178.570000 -17.127000 -45.973400 39.081100 -0.000007 -0.000012 0.134468 -0.215500 31.963200 40.985400 -0.000006 -0.000013 -0.961448 0.905044 -49.933400 11.754300 -0.000000 0.000003 -0.005988 -0.070739 -19.455700 -2.192510 6.469440 -0.000001 168.625000 9.369440 -171.572000 -39.081100 -0.002282 -0.040193 -0.120130 0.232616 27.952400 -40.985400 0.000008 0.000006 0.441139 12.370400 -76.084900 -11.754300 -0.000006 -0.000006 -2.996570 -2.765660 -28.821100
